<?xml version="1.0" standalone="no"?><?xml-stylesheet type="text/css" href="https://www.processon.com/themes/default/mind/icons/icons.css" ?><!DOCTYPE svg PUBLIC "-//W3C//DTD SVG 1.1//EN" "http://www.w3.org/Graphics/SVG/1.1/DTD/svg11.dtd"><svg xmlns="http://www.w3.org/2000/svg" xlink="http://www.w3.org/1999/xlink" id="mind-svg-view-con" version="1.1" width="1667.046875px" height="909.328125px"><defs></defs><g id="svgbackgroundid"><defs></defs><rect x="0" y="0" width="1667.046875" height="909.328125" fill="#ffffff"></rect></g><g transform="translate(-9212.953125, -9546)" id="sdjakdjak5"><defs></defs><g class="svg-topic-con" transform="translate(0.5,0.5)"><path part="right" sub="true" id="line_dbc94b648ae8" d="M 10000 10000 C 10000 10000 10010 9881 10144 9881" stroke="#43a9ff" fill="none" stroke-width="2"></path><path part="right" sub="true" id="line_4d34fc69ac61" d="M 10000 10000 C 10000 10000 10010 10320 10144 10320" stroke="#43a9ff" fill="none" stroke-width="2"></path><path part="left" sub="true" id="line_6ad48439bec1" d="M 10000 10000 C 10000 10000 9990 9823 9855.953125 9823" stroke="#43a9ff" fill="none" stroke-width="2"></path><path part="left" sub="true" id="line_201f7d940eed" d="M 10000 10000 C 10000 10000 9990 10205 9856 10205" stroke="#43a9ff" fill="none" stroke-width="2"></path></g><g class="svg-connection-con" transform="translate(0.5,0.5)"></g><g class="svg-freesums-con" transform="translate(0.5,0.5)"></g><g class="svg-freebos-con" transform="translate(0.5,0.5)"></g></g><g id="4d34fc69ac61"><rect x="931.046875" y="756.1875" rx="5px" ry="5px" width="78" height="35" style="fill: rgb(230,255,204); stroke:rgb(230,255,204);stroke-width:1px;"></rect><g><text text-anchor="start" align="top" anchor="start" font-family="微软雅黑" font-size="14px" font-weight="normal" fill="rgb(103, 103, 103)"><tspan x="942.046875" y="776.821875"><tspan>怎样采购</tspan></tspan></text></g></g><g id="6567b0767393"><rect x="1045.046875" y="687.140625" rx="5px" ry="5px" width="128" height="28" style="fill: rgb(193, 255, 193); stroke:rgb(193, 255, 193);stroke-width:1px;"></rect><g><text text-anchor="start" align="top" anchor="start" font-family="微软雅黑" font-size="12px" font-weight="normal" fill="rgb(103, 103, 103)"><tspan x="1055.046875" y="702.60625"><tspan>材料设备类（找货）</tspan></tspan></text></g></g><g id="dae488047bd3"><rect x="1209.046875" y="669" rx="5px" ry="5px" width="164" height="28" style="fill: rgb(193, 255, 193); stroke:rgb(193, 255, 193);stroke-width:1px;"></rect><g><text text-anchor="start" align="top" anchor="start" font-family="微软雅黑" font-size="12px" font-weight="normal" fill="rgb(103, 103, 103)"><tspan x="1219.046875" y="684.465625"><tspan>线上：京东，淘宝，天猫；</tspan></tspan></text></g></g><g id="7a8857ee1743"><rect x="1209.046875" y="705.265625" rx="5px" ry="5px" width="428" height="28" style="fill: rgb(193, 255, 193); stroke:rgb(193, 255, 193);stroke-width:1px;"></rect><g><text text-anchor="start" align="top" anchor="start" font-family="微软雅黑" font-size="12px" font-weight="normal" fill="rgb(103, 103, 103)"><tspan x="1219.046875" y="720.73125"><tspan>线下：电脑城同行比如港丰，海康大华代理商，生产厂家比如锐捷、富士等；</tspan></tspan></text></g></g><g id="1d0e96bcb744"><rect x="1045.046875" y="759.671875" rx="5px" ry="5px" width="116" height="28" style="fill: rgb(193, 255, 193); stroke:rgb(193, 255, 193);stroke-width:1px;"></rect><g><text text-anchor="start" align="top" anchor="start" font-family="微软雅黑" font-size="12px" font-weight="normal" fill="rgb(103, 103, 103)"><tspan x="1055.046875" y="775.1375"><tspan>施工队类（找人）</tspan></tspan></text></g></g><g id="3fff6641613b"><rect x="1197.046875" y="741.53125" rx="5px" ry="5px" width="226" height="28" style="fill: rgb(193, 255, 193); stroke:rgb(193, 255, 193);stroke-width:1px;"></rect><g><text text-anchor="start" align="top" anchor="start" font-family="微软雅黑" font-size="12px" font-weight="normal" fill="rgb(103, 103, 103)"><tspan x="1207.046875" y="756.996875"><tspan>线下：58同城，鱼泡网，微信，抖音；</tspan></tspan></text></g></g><g id="8b7a09e7b5be"><rect x="1197.046875" y="777.796875" rx="5px" ry="5px" width="152" height="28" style="fill: rgb(193, 255, 193); stroke:rgb(193, 255, 193);stroke-width:1px;"></rect><g><text text-anchor="start" align="top" anchor="start" font-family="微软雅黑" font-size="12px" font-weight="normal" fill="rgb(103, 103, 103)"><tspan x="1207.046875" y="793.2625"><tspan>线下：同行或熟人介绍；</tspan></tspan></text></g></g><g id="c63e6d0e71e7"><rect x="1045.046875" y="832.203125" rx="5px" ry="5px" width="164" height="28" style="fill: rgb(193, 255, 193); stroke:rgb(193, 255, 193);stroke-width:1px;"></rect><g><text text-anchor="start" align="top" anchor="start" font-family="微软雅黑" font-size="12px" font-weight="normal" fill="rgb(103, 103, 103)"><tspan x="1055.046875" y="847.66875"><tspan>五金材料（线管，线槽等）</tspan></tspan></text></g></g><g id="2a2271780e5e"><rect x="1245.046875" y="814.0625" rx="5px" ry="5px" width="200" height="28" style="fill: rgb(193, 255, 193); stroke:rgb(193, 255, 193);stroke-width:1px;"></rect><g><text text-anchor="start" align="top" anchor="start" font-family="微软雅黑" font-size="12px" font-weight="normal" fill="rgb(103, 103, 103)"><tspan x="1255.046875" y="829.528125"><tspan>线上：淘宝，百度地图，百度搜索</tspan></tspan></text></g></g><g id="23af0576c7d7"><rect x="1245.046875" y="850.328125" rx="5px" ry="5px" width="260" height="28" style="fill: rgb(193, 255, 193); stroke:rgb(193, 255, 193);stroke-width:1px;"></rect><g><text text-anchor="start" align="top" anchor="start" font-family="微软雅黑" font-size="12px" font-weight="normal" fill="rgb(103, 103, 103)"><tspan x="1255.046875" y="865.79375"><tspan>线下：工地附近五金店，五金城，材料市场等</tspan></tspan></text></g></g><g id="dbc94b648ae8"><rect x="931.046875" y="316.640625" rx="5px" ry="5px" width="78" height="35" style="fill: rgb(254,240,201); stroke:rgb(254,240,201);stroke-width:1px;"></rect><g><text text-anchor="start" align="top" anchor="start" font-family="微软雅黑" font-size="14px" font-weight="normal" fill="rgb(103, 103, 103)"><tspan x="942.046875" y="337.275"><tspan>怎样报价</tspan></tspan></text></g></g><g id="486cd63ab24c"><rect x="1045.046875" y="84.40625" rx="5px" ry="5px" width="68" height="29" style="fill: rgb(255, 230, 204); stroke:rgb(255, 230, 204);stroke-width:1px;"></rect><g><text text-anchor="start" align="top" anchor="start" font-family="微软雅黑" font-size="12px" font-weight="normal" fill="rgb(103, 103, 103)"><tspan x="1055.046875" y="99.871875"><tspan>新老客户</tspan></tspan></text></g></g><g id="5ac24cd51d02"><rect x="1149.046875" y="48.140625" rx="5px" ry="5px" width="56" height="28" style="fill: rgb(255, 230, 204); stroke:rgb(255, 230, 204);stroke-width:1px;"></rect><g><text text-anchor="start" align="top" anchor="start" font-family="微软雅黑" font-size="12px" font-weight="normal" fill="rgb(103, 103, 103)"><tspan x="1159.046875" y="63.60625"><tspan>老客户</tspan></tspan></text></g></g><g id="5f519e1a1795"><rect x="1241.046875" y="30" rx="5px" ry="5px" width="92" height="28" style="fill: rgb(255, 230, 204); stroke:rgb(255, 230, 204);stroke-width:1px;"></rect><g><text text-anchor="start" align="top" anchor="start" font-family="微软雅黑" font-size="12px" font-weight="normal" fill="rgb(103, 103, 103)"><tspan x="1251.046875" y="45.465625"><tspan>参考以前报价</tspan></tspan></text></g></g><g id="03fe68036389"><rect x="1241.046875" y="66.265625" rx="5px" ry="5px" width="92" height="28" style="fill: rgb(255, 230, 204); stroke:rgb(255, 230, 204);stroke-width:1px;"></rect><g><text text-anchor="start" align="top" anchor="start" font-family="微软雅黑" font-size="12px" font-weight="normal" fill="rgb(103, 103, 103)"><tspan x="1251.046875" y="81.73125"><tspan>参考客户属性</tspan></tspan></text></g></g><g id="683624203d53"><rect x="1149.046875" y="120.671875" rx="5px" ry="5px" width="56" height="28" style="fill: rgb(255, 230, 204); stroke:rgb(255, 230, 204);stroke-width:1px;"></rect><g><text text-anchor="start" align="top" anchor="start" font-family="微软雅黑" font-size="12px" font-weight="normal" fill="rgb(103, 103, 103)"><tspan x="1159.046875" y="136.1375"><tspan>新客户</tspan></tspan></text></g></g><g id="2d0d040a3758"><rect x="1241.046875" y="102.53125" rx="5px" ry="5px" width="80" height="28" style="fill: rgb(255, 230, 204); stroke:rgb(255, 230, 204);stroke-width:1px;"></rect><g><text text-anchor="start" align="top" anchor="start" font-family="微软雅黑" font-size="12px" font-weight="normal" fill="rgb(103, 103, 103)"><tspan x="1251.046875" y="117.996875"><tspan>一次性客户</tspan></tspan></text></g></g><g id="e457f4e3c7a5"><rect x="1241.046875" y="138.796875" rx="5px" ry="5px" width="68" height="28" style="fill: rgb(255, 230, 204); stroke:rgb(255, 230, 204);stroke-width:1px;"></rect><g><text text-anchor="start" align="top" anchor="start" font-family="微软雅黑" font-size="12px" font-weight="normal" fill="rgb(103, 103, 103)"><tspan x="1251.046875" y="154.2625"><tspan>长期客户</tspan></tspan></text></g></g><g id="c6f99d5589fa"><rect x="1045.046875" y="211.328125" rx="5px" ry="5px" width="68" height="29" style="fill: rgb(255, 230, 204); stroke:rgb(255, 230, 204);stroke-width:1px;"></rect><g><text text-anchor="start" align="top" anchor="start" font-family="微软雅黑" font-size="12px" font-weight="normal" fill="rgb(103, 103, 103)"><tspan x="1055.046875" y="226.79375"><tspan>客户关系</tspan></tspan></text></g></g><g id="041037af5916"><rect x="1149.046875" y="193.203125" rx="5px" ry="5px" width="68" height="28" style="fill: rgb(255, 230, 204); stroke:rgb(255, 230, 204);stroke-width:1px;"></rect><g><text text-anchor="start" align="top" anchor="start" font-family="微软雅黑" font-size="12px" font-weight="normal" fill="rgb(103, 103, 103)"><tspan x="1159.046875" y="208.66875"><tspan>最终客户</tspan></tspan></text></g></g><g id="ac6de60de033"><rect x="1253.046875" y="175.0625" rx="5px" ry="5px" width="236" height="28" style="fill: rgb(255, 230, 204); stroke:rgb(255, 230, 204);stroke-width:1px;"></rect><g><text text-anchor="start" align="top" anchor="start" font-family="微软雅黑" font-size="12px" font-weight="normal" fill="rgb(103, 103, 103)"><tspan x="1263.046875" y="190.528125"><tspan>获价渠道，电商：淘宝，京东，其它网站</tspan></tspan></text></g></g><g id="4919e049d035"><rect x="1253.046875" y="211.328125" rx="5px" ry="5px" width="68" height="28" style="fill: rgb(255, 230, 204); stroke:rgb(255, 230, 204);stroke-width:1px;"></rect><g><text text-anchor="start" align="top" anchor="start" font-family="微软雅黑" font-size="12px" font-weight="normal" fill="rgb(103, 103, 103)"><tspan x="1263.046875" y="226.79375"><tspan>线下咨询</tspan></tspan></text></g></g><g id="90bbed69b71a"><rect x="1149.046875" y="247.59375" rx="5px" ry="5px" width="50" height="28" style="fill: rgb(255, 230, 204); stroke:rgb(255, 230, 204);stroke-width:1px;"></rect><g><text text-anchor="start" align="top" anchor="start" font-family="微软雅黑" font-size="12px" font-weight="normal" fill="rgb(103, 103, 103)"><tspan x="1159.046875" y="263.059375"><tspan>同行</tspan></tspan></text></g></g><g id="b03074751682"><rect x="1235.046875" y="247.59375" rx="5px" ry="5px" width="104" height="28" style="fill: rgb(255, 230, 204); stroke:rgb(255, 230, 204);stroke-width:1px;"></rect><g><text text-anchor="start" align="top" anchor="start" font-family="微软雅黑" font-size="12px" font-weight="normal" fill="rgb(103, 103, 103)"><tspan x="1245.046875" y="263.059375"><tspan>中间商，低利润</tspan></tspan></text></g></g><g id="bea07c26c817"><rect x="1045.046875" y="320.125" rx="5px" ry="5px" width="68" height="29" style="fill: rgb(255, 230, 204); stroke:rgb(255, 230, 204);stroke-width:1px;"></rect><g><text text-anchor="start" align="top" anchor="start" font-family="微软雅黑" font-size="12px" font-weight="normal" fill="rgb(103, 103, 103)"><tspan x="1055.046875" y="335.590625"><tspan>客户属性</tspan></tspan></text></g></g><g id="7042a59ffa56"><rect x="1149.046875" y="283.859375" rx="5px" ry="5px" width="176" height="28" style="fill: rgb(255, 230, 204); stroke:rgb(255, 230, 204);stroke-width:1px;"></rect><g><text text-anchor="start" align="top" anchor="start" font-family="微软雅黑" font-size="12px" font-weight="normal" fill="rgb(103, 103, 103)"><tspan x="1159.046875" y="299.325"><tspan>年龄、性别、收入，家庭情况</tspan></tspan></text></g></g><g id="2e2aace88851"><rect x="1149.046875" y="320.125" rx="5px" ry="5px" width="128" height="28" style="fill: rgb(255, 230, 204); stroke:rgb(255, 230, 204);stroke-width:1px;"></rect><g><text text-anchor="start" align="top" anchor="start" font-family="微软雅黑" font-size="12px" font-weight="normal" fill="rgb(103, 103, 103)"><tspan x="1159.046875" y="335.590625"><tspan>教育程度，专业程度</tspan></tspan></text></g></g><g id="0a0cfd5fd6cf"><rect x="1149.046875" y="356.390625" rx="5px" ry="5px" width="68" height="28" style="fill: rgb(255, 230, 204); stroke:rgb(255, 230, 204);stroke-width:1px;"></rect><g><text text-anchor="start" align="top" anchor="start" font-family="微软雅黑" font-size="12px" font-weight="normal" fill="rgb(103, 103, 103)"><tspan x="1159.046875" y="371.85625"><tspan>客户关系</tspan></tspan></text></g></g><g id="77e45b34639b"><rect x="1045.046875" y="428.921875" rx="5px" ry="5px" width="68" height="29" style="fill: rgb(255, 230, 204); stroke:rgb(255, 230, 204);stroke-width:1px;"></rect><g><text text-anchor="start" align="top" anchor="start" font-family="微软雅黑" font-size="12px" font-weight="normal" fill="rgb(103, 103, 103)"><tspan x="1055.046875" y="444.3875"><tspan>客户需求</tspan></tspan></text></g></g><g id="102d39276938"><rect x="1149.046875" y="392.65625" rx="5px" ry="5px" width="104" height="28" style="fill: rgb(255, 230, 204); stroke:rgb(255, 230, 204);stroke-width:1px;"></rect><g><text text-anchor="start" align="top" anchor="start" font-family="微软雅黑" font-size="12px" font-weight="normal" fill="rgb(103, 103, 103)"><tspan x="1159.046875" y="408.121875"><tspan>定标方案，比价</tspan></tspan></text></g></g><g id="585334eb9b3e"><rect x="1149.046875" y="428.921875" rx="5px" ry="5px" width="92" height="28" style="fill: rgb(255, 230, 204); stroke:rgb(255, 230, 204);stroke-width:1px;"></rect><g><text text-anchor="start" align="top" anchor="start" font-family="微软雅黑" font-size="12px" font-weight="normal" fill="rgb(103, 103, 103)"><tspan x="1159.046875" y="444.3875"><tspan>带方案，报价</tspan></tspan></text></g></g><g id="a204212f6eea"><rect x="1149.046875" y="465.1875" rx="5px" ry="5px" width="236" height="28" style="fill: rgb(255, 230, 204); stroke:rgb(255, 230, 204);stroke-width:1px;"></rect><g><text text-anchor="start" align="top" anchor="start" font-family="微软雅黑" font-size="12px" font-weight="normal" fill="rgb(103, 103, 103)"><tspan x="1159.046875" y="480.653125"><tspan>客户要什么，关注什么，是方案还是价格</tspan></tspan></text></g></g><g id="1de26dba0f58"><rect x="1045.046875" y="555.859375" rx="5px" ry="5px" width="68" height="29" style="fill: rgb(255, 230, 204); stroke:rgb(255, 230, 204);stroke-width:1px;"></rect><g><text text-anchor="start" align="top" anchor="start" font-family="微软雅黑" font-size="12px" font-weight="normal" fill="rgb(103, 103, 103)"><tspan x="1055.046875" y="571.325"><tspan>风险评估</tspan></tspan></text></g></g><g id="ac85a4561a71"><rect x="1149.046875" y="501.453125" rx="5px" ry="5px" width="128" height="28" style="fill: rgb(255, 230, 204); stroke:rgb(255, 230, 204);stroke-width:1px;"></rect><g><text text-anchor="start" align="top" anchor="start" font-family="微软雅黑" font-size="12px" font-weight="normal" fill="rgb(103, 103, 103)"><tspan x="1159.046875" y="516.91875"><tspan>合同风险，不利条款</tspan></tspan></text></g></g><g id="f1a7e2aeab5b"><rect x="1149.046875" y="537.71875" rx="5px" ry="5px" width="176" height="28" style="fill: rgb(255, 230, 204); stroke:rgb(255, 230, 204);stroke-width:1px;"></rect><g><text text-anchor="start" align="top" anchor="start" font-family="微软雅黑" font-size="12px" font-weight="normal" fill="rgb(103, 103, 103)"><tspan x="1159.046875" y="553.184375"><tspan>回款周期，现金流；坏账烂账</tspan></tspan></text></g></g><g id="eb28c69a60a1"><rect x="1149.046875" y="573.984375" rx="5px" ry="5px" width="68" height="28" style="fill: rgb(255, 230, 204); stroke:rgb(255, 230, 204);stroke-width:1px;"></rect><g><text text-anchor="start" align="top" anchor="start" font-family="微软雅黑" font-size="12px" font-weight="normal" fill="rgb(103, 103, 103)"><tspan x="1159.046875" y="589.45"><tspan>税务风险</tspan></tspan></text></g></g><g id="93b3afef9e46"><rect x="1149.046875" y="610.25" rx="5px" ry="5px" width="68" height="28" style="fill: rgb(255, 230, 204); stroke:rgb(255, 230, 204);stroke-width:1px;"></rect><g><text text-anchor="start" align="top" anchor="start" font-family="微软雅黑" font-size="12px" font-weight="normal" fill="rgb(103, 103, 103)"><tspan x="1159.046875" y="625.715625"><tspan>价格浮动</tspan></tspan></text></g></g><g id="a3eb6725e297"><rect x="355.046875" y="496" rx="5px" ry="5px" width="200" height="85" style="fill: rgb(193, 255, 193); stroke:rgb(193, 255, 193);stroke-width:1px;"></rect><g><text text-anchor="start" align="top" anchor="start" font-family="微软雅黑" font-size="12px" font-weight="normal" fill="rgb(103, 103, 103)"><tspan x="365.046875" y="511.2"><tspan>业务重点是建立连接，分三步走：</tspan></tspan><tspan x="365.046875" y="527.2"><tspan>1、获取信息</tspan></tspan><tspan x="365.046875" y="543.2"><tspan>2、取得信任</tspan></tspan><tspan x="365.046875" y="559.2"><tspan>3、产生兴趣</tspan></tspan></text></g></g><g id="c4c03bd764a4"><rect x="456" y="589" rx="5px" ry="5px" width="99" height="85" style="fill: rgb(193, 255, 193); stroke:rgb(193, 255, 193);stroke-width:1px;"></rect><g><text text-anchor="start" align="top" anchor="start" font-family="微软雅黑" font-size="12px" font-weight="normal" fill="rgb(103, 103, 103)"><tspan x="466" y="604.2"><tspan>沟通小技巧：</tspan></tspan><tspan x="466" y="620.2"><tspan>1、自我介绍</tspan></tspan><tspan x="466" y="636.2"><tspan>2、保持微笑</tspan></tspan><tspan x="466" y="652.2"><tspan>3、自信、有趣</tspan></tspan></text></g></g><g id="4456fe37644b"><rect x="427.046875" y="682" rx="5px" ry="5px" width="128" height="66" style="fill: rgb(193, 255, 193); stroke:rgb(193, 255, 193);stroke-width:1px;"></rect><g><text text-anchor="start" align="top" anchor="start" font-family="微软雅黑" font-size="12px" font-weight="normal" fill="rgb(103, 103, 103)"><tspan x="437.046875" y="697.2"><tspan>业务最重要的事：</tspan></tspan><tspan x="437.046875" y="713.2"><tspan>对新业务员：下一单</tspan></tspan><tspan x="437.046875" y="729.2"><tspan>对老业务员：下一单</tspan></tspan></text></g></g><g id="aa9ec4571172"><rect x="403.046875" y="756" rx="5px" ry="5px" width="152" height="28" style="fill: rgb(193, 255, 193); stroke:rgb(193, 255, 193);stroke-width:1px;"></rect><g><text text-anchor="start" align="top" anchor="start" font-family="微软雅黑" font-size="12px" font-weight="normal" fill="rgb(103, 103, 103)"><tspan x="413.046875" y="771.465625"><tspan>业务升级版：客户转介绍</tspan></tspan></text></g></g><g id="942defe5cd7e"><rect x="319.046875" y="792.265625" rx="5px" ry="5px" width="236" height="28" style="fill: rgb(193, 255, 193); stroke:rgb(193, 255, 193);stroke-width:1px;"></rect><g><text text-anchor="start" align="top" anchor="start" font-family="微软雅黑" font-size="12px" font-weight="normal" fill="rgb(103, 103, 103)"><tspan x="329.046875" y="807.73125"><tspan>业务本质上是人与人之间的一种利益关系</tspan></tspan></text></g></g><g id="201f7d940eed"><rect x="591.046875" y="640.65625" rx="5px" ry="5px" width="52" height="35" style="fill: rgb(229,204,255); stroke:rgb(229,204,255);stroke-width:1px;"></rect><g><text text-anchor="start" align="top" anchor="start" font-family="微软雅黑" font-size="14px" font-weight="normal" fill="rgb(103, 103, 103)"><tspan x="602.046875" y="661.290625"><tspan>业务</tspan></tspan></text></g></g><g id="f6e0217968b6"><rect x="461.046875" y="88" rx="5px" ry="5px" width="68" height="28" style="fill: rgb(255, 204, 204); stroke:rgb(255, 204, 204);stroke-width:1px;"></rect><g><text text-anchor="start" align="top" anchor="start" font-family="微软雅黑" font-size="12px" font-weight="normal" fill="rgb(103, 103, 103)"><tspan x="471.046875" y="103.465625"><tspan>方案设计</tspan></tspan></text></g></g><g id="0c14f9c304b3"><rect x="461.046875" y="124.265625" rx="5px" ry="5px" width="68" height="28" style="fill: rgb(255, 204, 204); stroke:rgb(255, 204, 204);stroke-width:1px;"></rect><g><text text-anchor="start" align="top" anchor="start" font-family="微软雅黑" font-size="12px" font-weight="normal" fill="rgb(103, 103, 103)"><tspan x="471.046875" y="139.73125"><tspan>预算合同</tspan></tspan></text></g></g><g id="7666452e97c9"><rect x="461.046875" y="160.53125" rx="5px" ry="5px" width="68" height="28" style="fill: rgb(255, 204, 204); stroke:rgb(255, 204, 204);stroke-width:1px;"></rect><g><text text-anchor="start" align="top" anchor="start" font-family="微软雅黑" font-size="12px" font-weight="normal" fill="rgb(103, 103, 103)"><tspan x="471.046875" y="175.996875"><tspan>材料进场</tspan></tspan></text></g></g><g id="309e1667f221"><rect x="254" y="196.796875" rx="5px" ry="5px" width="171" height="104" style="fill: rgb(255, 204, 204); stroke:rgb(255, 204, 204);stroke-width:1px;"></rect><g><text text-anchor="start" align="top" anchor="start" font-family="微软雅黑" font-size="12px" font-weight="normal" fill="rgb(103, 103, 103)"><tspan x="264" y="211.996875"><tspan>1、进度管理《施工进度表》</tspan></tspan><tspan x="264" y="227.996875"><tspan>2、材料管理</tspan></tspan><tspan x="264" y="243.996875"><tspan>3、人员管理</tspan></tspan><tspan x="264" y="259.996875"><tspan>4、成本管理</tspan></tspan><tspan x="264" y="275.996875"><tspan>5、客户关系</tspan></tspan></text></g></g><g id="d8453714cceb"><rect x="461.046875" y="234.671875" rx="5px" ry="5px" width="68" height="28" style="fill: rgb(255, 204, 204); stroke:rgb(255, 204, 204);stroke-width:1px;"></rect><g><text text-anchor="start" align="top" anchor="start" font-family="微软雅黑" font-size="12px" font-weight="normal" fill="rgb(103, 103, 103)"><tspan x="471.046875" y="250.1375"><tspan>现场管理</tspan></tspan></text></g></g><g id="7930579c8cd1"><rect x="30" y="308.796875" rx="5px" ry="5px" width="291" height="85" style="fill: rgb(255, 204, 204); stroke:rgb(255, 204, 204);stroke-width:1px;"></rect><g><text text-anchor="start" align="top" anchor="start" font-family="微软雅黑" font-size="12px" font-weight="normal" fill="rgb(103, 103, 103)"><tspan x="40" y="323.996875"><tspan>1、合同扫描件</tspan></tspan><tspan x="40" y="339.996875"><tspan>2、excel版本合同清单</tspan></tspan><tspan x="40" y="355.996875"><tspan>3、CAD版本竣工图</tspan></tspan><tspan x="40" y="371.996875"><tspan>4、资料模板（不同类型的工程有不同的资料模块）</tspan></tspan></text></g></g><g id="e06458820596"><rect x="357.046875" y="337.171875" rx="5px" ry="5px" width="68" height="29" style="fill: rgb(255, 204, 204); stroke:rgb(255, 204, 204);stroke-width:1px;"></rect><g><text text-anchor="start" align="top" anchor="start" font-family="微软雅黑" font-size="12px" font-weight="normal" fill="rgb(103, 103, 103)"><tspan x="367.046875" y="352.6375"><tspan>竣工资料</tspan></tspan></text></g></g><g id="46a757c3c62d"><rect x="461.046875" y="337.171875" rx="5px" ry="5px" width="68" height="29" style="fill: rgb(255, 204, 204); stroke:rgb(255, 204, 204);stroke-width:1px;"></rect><g><text text-anchor="start" align="top" anchor="start" font-family="微软雅黑" font-size="12px" font-weight="normal" fill="rgb(103, 103, 103)"><tspan x="471.046875" y="352.6375"><tspan>竣工验收</tspan></tspan></text></g></g><g id="15d3ca441c11"><rect x="461.046875" y="401.796875" rx="5px" ry="5px" width="68" height="28" style="fill: rgb(255, 204, 204); stroke:rgb(255, 204, 204);stroke-width:1px;"></rect><g><text text-anchor="start" align="top" anchor="start" font-family="微软雅黑" font-size="12px" font-weight="normal" fill="rgb(103, 103, 103)"><tspan x="471.046875" y="417.2625"><tspan>工程结算</tspan></tspan></text></g></g><g id="57a063d5d0a7"><rect x="461.046875" y="438.0625" rx="5px" ry="5px" width="68" height="28" style="fill: rgb(255, 204, 204); stroke:rgb(255, 204, 204);stroke-width:1px;"></rect><g><text text-anchor="start" align="top" anchor="start" font-family="微软雅黑" font-size="12px" font-weight="normal" fill="rgb(103, 103, 103)"><tspan x="471.046875" y="453.528125"><tspan>工程收款</tspan></tspan></text></g></g><g id="6ad48439bec1"><rect x="565.046875" y="259.546875" rx="5px" ry="5px" width="78" height="35" style="fill: rgb(255,204,204); stroke:rgb(255,204,204);stroke-width:1px;"></rect><g><text text-anchor="start" align="top" anchor="start" font-family="微软雅黑" font-size="14px" font-weight="normal" fill="rgb(103, 103, 103)"><tspan x="576.046875" y="280.18125"><tspan>工程管理</tspan></tspan></text></g></g><g transform="translate(931.046875, 669)" id="sdjakdjak0"><g id="subline_4d34fc69ac61" transform="translate(0.5,-1.5)"><path id="line_6567b0767393" d="M 78 105 L 96 105 L 96 36 A 4 4 0 0 1 100 32 L 114 32" p="4d34fc69ac61" stroke="#43a9ff" fill="none" stroke-linecap="square" stroke-width="1"></path><path id="line_dae488047bd3" d="M 242 32 L 260 32 L 260 18 A 4 4 0 0 1 264 14 L 278 14" p="6567b0767393" stroke="#43a9ff" fill="none" stroke-linecap="square" stroke-width="1"></path><path id="line_7a8857ee1743" d="M 242 32 L 260 32 L 260 46 A 4 4 0 0 0 264 50 L 278 50" p="6567b0767393" stroke="#43a9ff" fill="none" stroke-linecap="square" stroke-width="1"></path><path id="line_1d0e96bcb744" d="M 78 105 L 96 105 L 96 105 L 114 105" p="4d34fc69ac61" stroke="#43a9ff" fill="none" stroke-linecap="square" stroke-width="1"></path><path id="line_3fff6641613b" d="M 230 105 L 248 105 L 248 90 A 4 4 0 0 1 252 86 L 266 86" p="1d0e96bcb744" stroke="#43a9ff" fill="none" stroke-linecap="square" stroke-width="1"></path><path id="line_8b7a09e7b5be" d="M 230 105 L 248 105 L 248 118 A 4 4 0 0 0 252 122 L 266 122" p="1d0e96bcb744" stroke="#43a9ff" fill="none" stroke-linecap="square" stroke-width="1"></path><path id="line_c63e6d0e71e7" d="M 78 105 L 96 105 L 96 173 A 4 4 0 0 0 100 177 L 114 177" p="4d34fc69ac61" stroke="#43a9ff" fill="none" stroke-linecap="square" stroke-width="1"></path><path id="line_2a2271780e5e" d="M 278 177 L 296 177 L 296 163 A 4 4 0 0 1 300 159 L 314 159" p="c63e6d0e71e7" stroke="#43a9ff" fill="none" stroke-linecap="square" stroke-width="1"></path><path id="line_23af0576c7d7" d="M 278 177 L 296 177 L 296 191 A 4 4 0 0 0 300 195 L 314 195" p="c63e6d0e71e7" stroke="#43a9ff" fill="none" stroke-linecap="square" stroke-width="1"></path></g><g transform="translate(0.5,-0.5)"></g><g class="svg-summary-con" transform="translate(0.5,-0.5)"></g><g class="svg-boundary-con" transform="translate(0.5,-0.5)"></g></g><g transform="translate(931.046875, 30)" id="sdjakdjak1"><g id="subline_dbc94b648ae8" transform="translate(0.5,-1.5)"><path id="line_486cd63ab24c" d="M 78 305 L 96 305 L 96 72 A 4 4 0 0 1 100 68 L 114 68" p="dbc94b648ae8" stroke="#43a9ff" fill="none" stroke-linecap="square" stroke-width="1"></path><path id="line_5ac24cd51d02" d="M 182 68 L 200 68 L 200 36 A 4 4 0 0 1 204 32 L 218 32" p="486cd63ab24c" stroke="#43a9ff" fill="none" stroke-linecap="square" stroke-width="1"></path><path id="line_5f519e1a1795" d="M 274 32 L 292 32 L 292 18 A 4 4 0 0 1 296 14 L 310 14" p="5ac24cd51d02" stroke="#43a9ff" fill="none" stroke-linecap="square" stroke-width="1"></path><path id="line_03fe68036389" d="M 274 32 L 292 32 L 292 46 A 4 4 0 0 0 296 50 L 310 50" p="5ac24cd51d02" stroke="#43a9ff" fill="none" stroke-linecap="square" stroke-width="1"></path><path id="line_683624203d53" d="M 182 68 L 200 68 L 200 100 A 4 4 0 0 0 204 104 L 218 104" p="486cd63ab24c" stroke="#43a9ff" fill="none" stroke-linecap="square" stroke-width="1"></path><path id="line_2d0d040a3758" d="M 274 104 L 292 104 L 292 90 A 4 4 0 0 1 296 86 L 310 86" p="683624203d53" stroke="#43a9ff" fill="none" stroke-linecap="square" stroke-width="1"></path><path id="line_e457f4e3c7a5" d="M 274 104 L 292 104 L 292 118 A 4 4 0 0 0 296 122 L 310 122" p="683624203d53" stroke="#43a9ff" fill="none" stroke-linecap="square" stroke-width="1"></path><path id="line_c6f99d5589fa" d="M 78 305 L 96 305 L 96 199 A 4 4 0 0 1 100 195 L 114 195" p="dbc94b648ae8" stroke="#43a9ff" fill="none" stroke-linecap="square" stroke-width="1"></path><path id="line_041037af5916" d="M 182 195 L 200 195 L 200 181 A 4 4 0 0 1 204 177 L 218 177" p="c6f99d5589fa" stroke="#43a9ff" fill="none" stroke-linecap="square" stroke-width="1"></path><path id="line_ac6de60de033" d="M 286 177 L 304 177 L 304 163 A 4 4 0 0 1 308 159 L 322 159" p="041037af5916" stroke="#43a9ff" fill="none" stroke-linecap="square" stroke-width="1"></path><path id="line_4919e049d035" d="M 286 177 L 304 177 L 304 191 A 4 4 0 0 0 308 195 L 322 195" p="041037af5916" stroke="#43a9ff" fill="none" stroke-linecap="square" stroke-width="1"></path><path id="line_90bbed69b71a" d="M 182 195 L 200 195 L 200 227 A 4 4 0 0 0 204 231 L 218 231" p="c6f99d5589fa" stroke="#43a9ff" fill="none" stroke-linecap="square" stroke-width="1"></path><path id="line_b03074751682" d="M 268 231 L 286 231 L 286 231 L 304 231" p="90bbed69b71a" stroke="#43a9ff" fill="none" stroke-linecap="square" stroke-width="1"></path><path id="line_bea07c26c817" d="M 78 305 L 96 305 L 96 305 L 114 305" p="dbc94b648ae8" stroke="#43a9ff" fill="none" stroke-linecap="square" stroke-width="1"></path><path id="line_7042a59ffa56" d="M 182 305 L 200 305 L 200 271 A 4 4 0 0 1 204 267 L 218 267" p="bea07c26c817" stroke="#43a9ff" fill="none" stroke-linecap="square" stroke-width="1"></path><path id="line_2e2aace88851" d="M 182 305 L 200 305 L 200 305 L 218 305" p="bea07c26c817" stroke="#43a9ff" fill="none" stroke-linecap="square" stroke-width="1"></path><path id="line_0a0cfd5fd6cf" d="M 182 305 L 200 305 L 200 336 A 4 4 0 0 0 204 340 L 218 340" p="bea07c26c817" stroke="#43a9ff" fill="none" stroke-linecap="square" stroke-width="1"></path><path id="line_77e45b34639b" d="M 78 305 L 96 305 L 96 409 A 4 4 0 0 0 100 413 L 114 413" p="dbc94b648ae8" stroke="#43a9ff" fill="none" stroke-linecap="square" stroke-width="1"></path><path id="line_102d39276938" d="M 182 413 L 200 413 L 200 380 A 4 4 0 0 1 204 376 L 218 376" p="77e45b34639b" stroke="#43a9ff" fill="none" stroke-linecap="square" stroke-width="1"></path><path id="line_585334eb9b3e" d="M 182 413 L 200 413 L 200 413 L 218 413" p="77e45b34639b" stroke="#43a9ff" fill="none" stroke-linecap="square" stroke-width="1"></path><path id="line_a204212f6eea" d="M 182 413 L 200 413 L 200 445 A 4 4 0 0 0 204 449 L 218 449" p="77e45b34639b" stroke="#43a9ff" fill="none" stroke-linecap="square" stroke-width="1"></path><path id="line_1de26dba0f58" d="M 78 305 L 96 305 L 96 536 A 4 4 0 0 0 100 540 L 114 540" p="dbc94b648ae8" stroke="#43a9ff" fill="none" stroke-linecap="square" stroke-width="1"></path><path id="line_ac85a4561a71" d="M 182 540 L 200 540 L 200 489 A 4 4 0 0 1 204 485 L 218 485" p="1de26dba0f58" stroke="#43a9ff" fill="none" stroke-linecap="square" stroke-width="1"></path><path id="line_f1a7e2aeab5b" d="M 182 540 L 200 540 L 200 525 A 4 4 0 0 1 204 521 L 218 521" p="1de26dba0f58" stroke="#43a9ff" fill="none" stroke-linecap="square" stroke-width="1"></path><path id="line_eb28c69a60a1" d="M 182 540 L 200 540 L 200 553 A 4 4 0 0 0 204 557 L 218 557" p="1de26dba0f58" stroke="#43a9ff" fill="none" stroke-linecap="square" stroke-width="1"></path><path id="line_93b3afef9e46" d="M 182 540 L 200 540 L 200 590 A 4 4 0 0 0 204 594 L 218 594" p="1de26dba0f58" stroke="#43a9ff" fill="none" stroke-linecap="square" stroke-width="1"></path></g><g transform="translate(0.5,-0.5)"></g><g class="svg-summary-con" transform="translate(0.5,-0.5)"></g><g class="svg-boundary-con" transform="translate(0.5,-0.5)"></g></g><g transform="translate(319.046875, 496)" id="sdjakdjak2"><g id="subline_201f7d940eed" transform="translate(0.5,-1.5)"><path id="line_a3eb6725e297" d="M 270 162 L 252 162 L 252 46 A 4 4 0 0 0 248 42 L 236 42" p="201f7d940eed" stroke="#43a9ff" fill="none" stroke-linecap="square" stroke-width="1"></path><path id="line_c4c03bd764a4" d="M 270 162 L 252 162 L 252 139 A 4 4 0 0 0 248 135 L 235.953125 135" p="201f7d940eed" stroke="#43a9ff" fill="none" stroke-linecap="square" stroke-width="1"></path><path id="line_4456fe37644b" d="M 270 162 L 252 162 L 252 215 A 4 4 0 0 1 248 219 L 236 219" p="201f7d940eed" stroke="#43a9ff" fill="none" stroke-linecap="square" stroke-width="1"></path><path id="line_aa9ec4571172" d="M 270 162 L 252 162 L 252 270 A 4 4 0 0 1 248 274 L 236 274" p="201f7d940eed" stroke="#43a9ff" fill="none" stroke-linecap="square" stroke-width="1"></path><path id="line_942defe5cd7e" d="M 270 162 L 252 162 L 252 306 A 4 4 0 0 1 248 310 L 236 310" p="201f7d940eed" stroke="#43a9ff" fill="none" stroke-linecap="square" stroke-width="1"></path></g><g transform="translate(0.5,-0.5)"></g><g class="svg-summary-con" transform="translate(0.5,-0.5)"></g><g class="svg-boundary-con" transform="translate(0.5,-0.5)"></g></g><g transform="translate(30, 88)" id="sdjakdjak3"><g id="subline_6ad48439bec1" transform="translate(0.5,-1.5)"><path id="line_f6e0217968b6" d="M 535.046875 189 L 518 189 L 518 18 A 4 4 0 0 0 514 14 L 499.046875 14" p="6ad48439bec1" stroke="#43a9ff" fill="none" stroke-linecap="square" stroke-width="1"></path><path id="line_0c14f9c304b3" d="M 535.046875 189 L 518 189 L 518 54 A 4 4 0 0 0 514 50 L 499.046875 50" p="6ad48439bec1" stroke="#43a9ff" fill="none" stroke-linecap="square" stroke-width="1"></path><path id="line_7666452e97c9" d="M 535.046875 189 L 518 189 L 518 90 A 4 4 0 0 0 514 86 L 499.046875 86" p="6ad48439bec1" stroke="#43a9ff" fill="none" stroke-linecap="square" stroke-width="1"></path><path id="line_d8453714cceb" d="M 535.046875 189 L 518 189 L 518 164 A 4 4 0 0 0 514 160 L 499.046875 160" p="6ad48439bec1" stroke="#43a9ff" fill="none" stroke-linecap="square" stroke-width="1"></path><path id="line_309e1667f221" d="M 431.046875 160 L 414 160 L 414 160 L 395 160" p="d8453714cceb" stroke="#43a9ff" fill="none" stroke-linecap="square" stroke-width="1"></path><path id="line_46a757c3c62d" d="M 535.046875 189 L 518 189 L 518 259 A 4 4 0 0 1 514 263 L 499.046875 263" p="6ad48439bec1" stroke="#43a9ff" fill="none" stroke-linecap="square" stroke-width="1"></path><path id="line_e06458820596" d="M 431.046875 263 L 414 263 L 414 263 L 395.046875 263" p="46a757c3c62d" stroke="#43a9ff" fill="none" stroke-linecap="square" stroke-width="1"></path><path id="line_7930579c8cd1" d="M 327.046875 263 L 310 263 L 310 263 L 291 263" p="e06458820596" stroke="#43a9ff" fill="none" stroke-linecap="square" stroke-width="1"></path><path id="line_15d3ca441c11" d="M 535.046875 189 L 518 189 L 518 323 A 4 4 0 0 1 514 327 L 499.046875 327" p="6ad48439bec1" stroke="#43a9ff" fill="none" stroke-linecap="square" stroke-width="1"></path><path id="line_57a063d5d0a7" d="M 535.046875 189 L 518 189 L 518 360 A 4 4 0 0 1 514 364 L 499.046875 364" p="6ad48439bec1" stroke="#43a9ff" fill="none" stroke-linecap="square" stroke-width="1"></path></g><g transform="translate(0.5,-0.5)"></g><g class="svg-summary-con" transform="translate(0.5,-0.5)"></g><g class="svg-boundary-con" transform="translate(0.5,-0.5)"></g></g><g transform="translate(723.046875, 424)" id="sdjakdjak4"><g id="subline_root" transform="translate(0.5,-1.5)"></g><g transform="translate(0.5,-0.5)"></g><g class="svg-summary-con" transform="translate(0.5,-0.5)"></g><g class="svg-boundary-con" transform="translate(0.5,-0.5)"></g></g><g id="root"><rect x="723.046875" y="424" rx="5px" ry="5px" width="128" height="60" style="fill: #50C28B; stroke:none;"></rect><g><text text-anchor="start" align="top" anchor="start" font-family="微软雅黑" font-size="26px" font-weight="normal" fill="rgb(255, 255, 255)"><tspan x="735.046875" y="459.084375"><tspan>怎样工作</tspan></tspan></text></g></g></svg>