<?xml version="1.0" standalone="no"?><?xml-stylesheet type="text/css" href="https://www.processon.com/themes/default/mind/icons/icons.css" ?><!DOCTYPE svg PUBLIC "-//W3C//DTD SVG 1.1//EN" "http://www.w3.org/Graphics/SVG/1.1/DTD/svg11.dtd"><svg xmlns="http://www.w3.org/2000/svg" xlink="http://www.w3.org/1999/xlink" id="mind-svg-view-con" version="1.1" width="567px" height="537px"><defs></defs><g id="svgbackgroundid"><defs></defs><rect x="0" y="0" width="567" height="537" fill="#ffffff"></rect></g><g transform="translate(-9894, -9732)" id="sdjakdjak6"><defs></defs><g class="svg-topic-con" transform="translate(0.5,0.5)"><path part="right" sub="true" id="line_e58e8ca45a2e" d="M 10000 10000 C 10000 10000 10010 9787 10156 9787" stroke="rgb(170,170,170)" fill="none" stroke-width="1"></path><path part="right" sub="true" id="line_b895f42a6716" d="M 10000 10000 C 10000 10000 10010 9885 10156 9885" stroke="rgb(170,170,170)" fill="none" stroke-width="1"></path><path part="right" sub="true" id="line_2e2579a74765" d="M 10000 10000 C 10000 10000 10010 10024 10156 10024" stroke="rgb(170,170,170)" fill="none" stroke-width="1"></path><path part="right" sub="true" id="line_f5bf1d674d1e" d="M 10000 10000 C 10000 10000 10010 10140 10156 10140" stroke="rgb(170,170,170)" fill="none" stroke-width="1"></path><path part="right" sub="true" id="line_5971913284a4" d="M 10000 10000 C 10000 10000 10010 10215 10156 10215" stroke="rgb(170,170,170)" fill="none" stroke-width="1"></path></g><g class="svg-connection-con" transform="translate(0.5,0.5)"></g><g class="svg-freesums-con" transform="translate(0.5,0.5)"></g><g class="svg-freebos-con" transform="translate(0.5,0.5)"></g></g><g id="5971913284a4"><rect x="262" y="458" rx="5px" ry="5px" width="90" height="49" style="fill: #ffffff; stroke:rgb(187,187,187);stroke-width:1px;"></rect><g><text text-anchor="start" align="top" anchor="start" font-family="微软雅黑" font-size="17px" font-weight="normal" fill="rgb(68, 68, 68)"><tspan x="273" y="485.2"><tspan>边用边学</tspan></tspan></text></g></g><g id="f5bf1d674d1e"><rect x="262" y="383" rx="5px" ry="5px" width="158" height="49" style="fill: #ffffff; stroke:rgb(187,187,187);stroke-width:1px;"></rect><g><text text-anchor="start" align="top" anchor="start" font-family="微软雅黑" font-size="17px" font-weight="normal" fill="rgb(68, 68, 68)"><tspan x="273" y="410.2"><tspan>一个问题一个学习</tspan></tspan></text></g></g><g id="2e2579a74765"><rect x="262" y="267.5" rx="5px" ry="5px" width="73" height="49" style="fill: #ffffff; stroke:rgb(187,187,187);stroke-width:1px;"></rect><g><text text-anchor="start" align="top" anchor="start" font-family="微软雅黑" font-size="17px" font-weight="normal" fill="rgb(68, 68, 68)"><tspan x="273" y="294.7"><tspan>找资源</tspan></tspan></text></g></g><g id="2da4a0c8972d"><rect x="363" y="227" rx="1px" ry="1px" width="72" height="27" style="fill: transparent; stroke:none;"></rect><g><text text-anchor="start" align="top" anchor="start" font-family="微软雅黑" font-size="13px" font-weight="normal" fill="rgb(68, 68, 68)"><tspan x="372" y="242.3"><tspan>CAD图库</tspan></tspan></text></g></g><g id="66a8153e4e15"><rect x="363" y="261.5" rx="1px" ry="1px" width="57" height="27" style="fill: transparent; stroke:none;"></rect><g><text text-anchor="start" align="top" anchor="start" font-family="微软雅黑" font-size="13px" font-weight="normal" fill="rgb(68, 68, 68)"><tspan x="372" y="276.8"><tspan>找模板</tspan></tspan></text></g></g><g id="ad2ea9ee4559"><rect x="363" y="296" rx="1px" ry="1px" width="174" height="27" style="fill: transparent; stroke:none;"></rect><g><text text-anchor="start" align="top" anchor="start" font-family="微软雅黑" font-size="13px" font-weight="normal" fill="rgb(68, 68, 68)"><tspan x="372" y="311.3"><tspan>找案例，设计院，同行同事</tspan></tspan></text></g></g><g id="4285a01b43d3"><rect x="363" y="330.5" rx="1px" ry="1px" width="57" height="27" style="fill: transparent; stroke:none;"></rect><g><text text-anchor="start" align="top" anchor="start" font-family="微软雅黑" font-size="13px" font-weight="normal" fill="rgb(68, 68, 68)"><tspan x="372" y="345.8"><tspan>找插件</tspan></tspan></text></g></g><g id="b895f42a6716"><rect x="262" y="128.25" rx="5px" ry="5px" width="107" height="49" style="fill: #ffffff; stroke:rgb(187,187,187);stroke-width:1px;"></rect><g><text text-anchor="start" align="top" anchor="start" font-family="微软雅黑" font-size="17px" font-weight="normal" fill="rgb(68, 68, 68)"><tspan x="273" y="155.45"><tspan>最小快方法</tspan></tspan></text></g></g><g id="63158731b910"><rect x="397" y="105" rx="1px" ry="1px" width="96" height="27" style="fill: transparent; stroke:none;"></rect><g><text text-anchor="start" align="top" anchor="start" font-family="微软雅黑" font-size="13px" font-weight="normal" fill="rgb(68, 68, 68)"><tspan x="406" y="120.3"><tspan>熟悉软件界面</tspan></tspan></text></g></g><g id="adc23164d275"><rect x="397" y="139.5" rx="1px" ry="1px" width="96" height="27" style="fill: transparent; stroke:none;"></rect><g><text text-anchor="start" align="top" anchor="start" font-family="微软雅黑" font-size="13px" font-weight="normal" fill="rgb(68, 68, 68)"><tspan x="406" y="154.8"><tspan>熟悉常用工具</tspan></tspan></text></g></g><g id="8fc29ef10fdb"><rect x="397" y="174" rx="1px" ry="1px" width="109" height="27" style="fill: transparent; stroke:none;"></rect><g><text text-anchor="start" align="top" anchor="start" font-family="微软雅黑" font-size="13px" font-weight="normal" fill="rgb(68, 68, 68)"><tspan x="406" y="189.3"><tspan>熟悉常用快捷键</tspan></tspan></text></g></g><g id="e58e8ca45a2e"><rect x="262" y="30" rx="5px" ry="5px" width="158" height="49" style="fill: #ffffff; stroke:rgb(187,187,187);stroke-width:1px;"></rect><g><text text-anchor="start" align="top" anchor="start" font-family="微软雅黑" font-size="17px" font-weight="normal" fill="rgb(68, 68, 68)"><tspan x="273" y="57.2"><tspan>想清楚目的是什么</tspan></tspan></text></g></g><g transform="translate(262, 458)" id="sdjakdjak0"><g id="subline_5971913284a4" transform="translate(0.5,-1.5)"></g><g transform="translate(0.5,-0.5)"></g><g class="svg-summary-con" transform="translate(0.5,-0.5)"></g><g class="svg-boundary-con" transform="translate(0.5,-0.5)"></g></g><g transform="translate(262, 383)" id="sdjakdjak1"><g id="subline_f5bf1d674d1e" transform="translate(0.5,-1.5)"></g><g transform="translate(0.5,-0.5)"></g><g class="svg-summary-con" transform="translate(0.5,-0.5)"></g><g class="svg-boundary-con" transform="translate(0.5,-0.5)"></g></g><g transform="translate(262, 227)" id="sdjakdjak2"><g id="subline_2e2579a74765" transform="translate(0.5,-1.5)"><path id="line_2da4a0c8972d" d="M 73 65 L 91 65 L 91 17 A 4 4 0 0 1 95 13 L 101 13" p="2e2579a74765" stroke="rgb(140,140,140)" fill="none" stroke-linecap="square" stroke-width="1"></path><path id="line_66a8153e4e15" d="M 73 65 L 91 65 L 91 52 A 4 4 0 0 1 95 48 L 101 48" p="2e2579a74765" stroke="rgb(140,140,140)" fill="none" stroke-linecap="square" stroke-width="1"></path><path id="line_ad2ea9ee4559" d="M 73 65 L 91 65 L 91 78 A 4 4 0 0 0 95 82 L 101 82" p="2e2579a74765" stroke="rgb(140,140,140)" fill="none" stroke-linecap="square" stroke-width="1"></path><path id="line_4285a01b43d3" d="M 73 65 L 91 65 L 91 113 A 4 4 0 0 0 95 117 L 101 117" p="2e2579a74765" stroke="rgb(140,140,140)" fill="none" stroke-linecap="square" stroke-width="1"></path></g><g transform="translate(0.5,-0.5)"></g><g class="svg-summary-con" transform="translate(0.5,-0.5)"></g><g class="svg-boundary-con" transform="translate(0.5,-0.5)"></g></g><g transform="translate(262, 105)" id="sdjakdjak3"><g id="subline_b895f42a6716" transform="translate(0.5,-1.5)"><path id="line_63158731b910" d="M 107 47.5 L 125 47.5 L 125 17 A 4 4 0 0 1 129 13 L 135 13" p="b895f42a6716" stroke="rgb(140,140,140)" fill="none" stroke-linecap="square" stroke-width="1"></path><path id="line_adc23164d275" d="M 107 47.5 L 125 47.5 L 125 47.5 L 135 47.5" p="b895f42a6716" stroke="rgb(140,140,140)" fill="none" stroke-linecap="square" stroke-width="1"></path><path id="line_8fc29ef10fdb" d="M 107 47.5 L 125 47.5 L 125 78 A 4 4 0 0 0 129 82 L 135 82" p="b895f42a6716" stroke="rgb(140,140,140)" fill="none" stroke-linecap="square" stroke-width="1"></path></g><g transform="translate(0.5,-0.5)"></g><g class="svg-summary-con" transform="translate(0.5,-0.5)"></g><g class="svg-boundary-con" transform="translate(0.5,-0.5)"></g></g><g transform="translate(262, 30)" id="sdjakdjak4"><g id="subline_e58e8ca45a2e" transform="translate(0.5,-1.5)"></g><g transform="translate(0.5,-0.5)"></g><g class="svg-summary-con" transform="translate(0.5,-0.5)"></g><g class="svg-boundary-con" transform="translate(0.5,-0.5)"></g></g><g transform="translate(30, 234)" id="sdjakdjak5"><g id="subline_root" transform="translate(0.5,-1.5)"></g><g transform="translate(0.5,-0.5)"></g><g class="svg-summary-con" transform="translate(0.5,-0.5)"></g><g class="svg-boundary-con" transform="translate(0.5,-0.5)"></g></g><g id="root"><rect x="30" y="234" rx="5px" ry="5px" width="152" height="68" style="fill: #50C28B; stroke:none;"></rect><g><text text-anchor="start" align="top" anchor="start" font-family="微软雅黑" font-size="25px" font-weight="normal" fill="rgb(255, 255, 255)"><tspan x="42" y="273"><tspan>怎样学CAD</tspan></tspan></text></g></g></svg>